<svg id="Layer_1" data-name="Layer 1" xmlns="http://www.w3.org/2000/svg" viewBox="0 0 426.05 235.86"><defs><style>.cls-1{fill:#fff;}.cls-2{font-size:7.34px;}.cls-2,.cls-3{fill:#444;font-family:Lato;}.cls-3{font-size:11px;}.cls-4,.cls-6,.cls-7,.cls-8{fill:none;stroke:#39ff03;stroke-miterlimit:10;}.cls-5{fill:#39ff03;}.cls-6{stroke-dasharray:3.33 3.33;}.cls-7{stroke-dasharray:4.98 4.98;}.cls-8{stroke-dasharray:5.31 5.31;}</style></defs><title>figure2</title><rect class="cls-1" width="426.05" height="235.86"/><text class="cls-2" transform="translate(103.85 187.87)">SPRINT<tspan x="-6.14" y="8.81">PLANNING</tspan></text><text class="cls-2" transform="translate(192.66 184.52)">RESEA<tspan x="22.56" y="0">R</tspan><tspan x="27.26" y="0">CH</tspan><tspan x="17.46" y="8.81">-</tspan><tspan x="5.21" y="17.61">CRE</tspan><tspan x="19.06" y="17.61">A</tspan><tspan x="23.88" y="17.61">TE</tspan></text><text class="cls-2" transform="translate(147.69 119.12)">RESEA<tspan x="22.56" y="0">R</tspan><tspan x="27.26" y="0">CH</tspan><tspan x="17.46" y="8.81">-</tspan><tspan x="5.21" y="17.61">CRE</tspan><tspan x="19.06" y="17.61">A</tspan><tspan x="23.88" y="17.61">TE</tspan></text><text class="cls-2" transform="translate(318.97 188.22)">SPRINT<tspan x="-1.48" y="8.81">REVIEW</tspan></text><text class="cls-2" transform="translate(379.8 187.52)">SPRINT<tspan x="-16.04" y="8.81">RET</tspan><tspan x="-2.62" y="8.81">R</tspan><tspan x="2.08" y="8.81">OSPECTIVE</tspan></text><text class="cls-2" transform="translate(269.68 41.04)">3<tspan x="-18.56" y="8.81">TRANSL</tspan><tspan x="9.46" y="8.81">A</tspan><tspan x="14.28" y="8.81">TE</tspan></text><text class="cls-2" transform="translate(329.38 127.04)">4</text><text class="cls-2" transform="translate(4.29 80.74)">D<tspan x="5.23" y="0">AI</tspan><tspan x="12.98" y="0">L</tspan><tspan x="15.91" y="0">Y S</tspan><tspan x="26.27" y="0">T</tspan><tspan x="30.08" y="0">AND-UP</tspan><tspan x="13.25" y="8.81">MEETING</tspan></text><text class="cls-2" transform="translate(31.39 22.27)">1</text><text class="cls-2" transform="translate(13.07 188.57)">IDE<tspan x="11.94" y="0">A</tspan><tspan x="16.76" y="0">TION &amp;</tspan><tspan x="1.77" y="8.81">PLANNING</tspan></text><text class="cls-2" transform="translate(31.39 117.51)">2</text><text class="cls-2" transform="translate(390.47 127.04)">5</text><text class="cls-3" transform="translate(215.36 100.51)">SPRINT</text><text class="cls-2" transform="translate(102.72 30.73)">DESIGN <tspan x="-4.08" y="8.81">METHODS</tspan><tspan x="-1.8" y="17.61">T</tspan><tspan x="2.37" y="17.61">OOLKIT</tspan></text><polygon class="cls-4" points="27.82 42.92 39.83 42.92 33.83 64.49 27.82 42.92"/><circle class="cls-4" cx="33.71" cy="35.04" r="2.56"/><polygon class="cls-4" points="317.5 147.29 329.51 147.29 323.5 168.86 317.5 147.29"/><circle class="cls-4" cx="323.39" cy="139.41" r="2.56"/><polygon class="cls-4" points="386.71 147.07 398.72 147.07 392.72 168.65 386.71 147.07"/><circle class="cls-4" cx="392.6" cy="139.2" r="2.56"/><polygon class="cls-4" points="346.28 161.43 334.27 161.43 340.27 139.85 346.28 161.43"/><circle class="cls-4" cx="340.39" cy="169.31" r="2.56"/><polygon class="cls-4" points="27.82 147.29 39.83 147.29 33.83 168.86 27.82 147.29"/><circle class="cls-4" cx="33.71" cy="139.41" r="2.56"/><circle class="cls-4" cx="33.71" cy="129.87" r="2.56"/><line class="cls-4" x1="81.7" y1="155.93" x2="57.49" y2="155.93"/><polygon class="cls-5" points="78.38 151.84 77.7 152.57 81.31 155.93 77.7 159.29 78.38 160.02 82.78 155.93 78.38 151.84"/><line class="cls-4" x1="180.47" y1="155.93" x2="144.1" y2="155.93"/><polygon class="cls-5" points="177.16 151.84 176.47 152.57 180.09 155.93 176.47 159.29 177.16 160.02 181.56 155.93 177.16 151.84"/><line class="cls-4" x1="301.06" y1="155.93" x2="264.68" y2="155.93"/><polygon class="cls-5" points="297.74 151.84 297.06 152.57 300.67 155.93 297.06 159.29 297.74 160.02 302.14 155.93 297.74 151.84"/><line class="cls-4" x1="383.69" y1="169.82" x2="377.41" y2="147.07"/><polygon class="cls-5" points="386.75 165.54 385.86 165.07 383.59 169.45 379.39 166.86 378.86 167.71 383.98 170.86 386.75 165.54"/><line class="cls-4" x1="407.93" y1="148.76" x2="401.27" y2="170.86"/><polygon class="cls-5" points="403.06 150.76 403.56 151.62 407.81 149.13 409.99 153.56 410.89 153.11 408.24 147.72 403.06 150.76"/><line class="cls-4" x1="371.33" y1="155.93" x2="357.68" y2="155.93"/><line class="cls-4" x1="116.77" y1="125.91" x2="116.77" y2="101.7"/><polygon class="cls-5" points="120.86 122.6 120.13 121.91 116.77 125.53 113.42 121.91 112.68 122.6 116.77 126.99 120.86 122.6"/><path class="cls-4" d="M2243.85,1408.1a16.27,16.27,0,0,0-1.2-21.11" transform="translate(-2114.07 -1240.61)"/><path class="cls-4" d="M2219,1387a16.27,16.27,0,0,0-1.2,21.11" transform="translate(-2114.07 -1240.61)"/><line class="cls-4" x1="123.16" y1="146.38" x2="110.38" y2="146.38"/><line class="cls-4" x1="121.23" y1="63.62" x2="112.32" y2="63.62"/><line class="cls-4" x1="119" y1="67.48" x2="114.54" y2="59.77"/><line class="cls-4" x1="119" y1="59.77" x2="114.54" y2="67.48"/><line class="cls-4" x1="121.23" y1="87.62" x2="112.32" y2="87.62"/><line class="cls-4" x1="119" y1="91.48" x2="114.54" y2="83.77"/><line class="cls-4" x1="119" y1="83.77" x2="114.54" y2="91.48"/><line class="cls-4" x1="114.83" y1="75.62" x2="105.93" y2="75.62"/><line class="cls-4" x1="112.61" y1="79.48" x2="108.15" y2="71.77"/><line class="cls-4" x1="112.61" y1="71.77" x2="108.15" y2="79.48"/><line class="cls-4" x1="127.68" y1="75.62" x2="118.77" y2="75.62"/><line class="cls-4" x1="125.45" y1="79.48" x2="121" y2="71.77"/><line class="cls-4" x1="125.45" y1="71.77" x2="121" y2="79.48"/><line class="cls-4" x1="123.16" y1="167.49" x2="110.38" y2="167.49"/><line class="cls-4" x1="107.26" y1="153.41" x2="126.29" y2="153.41"/><line class="cls-4" x1="107.26" y1="160.45" x2="126.29" y2="160.45"/><circle class="cls-4" cx="202.41" cy="157.01" r="5.34"/><polyline class="cls-4" points="203.71 158.04 204.45 155.24 201.61 155.91"/><polyline class="cls-4" points="214.02 167.22 222.34 150.58 211.98 148.65 220.88 153.51"/><circle class="cls-4" cx="160.02" cy="93.17" r="5.34"/><polyline class="cls-4" points="161.32 94.21 162.06 91.41 159.22 92.07"/><polyline class="cls-4" points="171.63 103.39 179.96 86.74 169.59 84.81 178.49 89.68"/><path class="cls-4" d="M2407.73,1304.51c9.09,23.83-3,56.24-30.75,77.74a94.93,94.93,0,0,1-29.16,15.49" transform="translate(-2114.07 -1240.61)"/><polygon class="cls-5" points="290.89 68.42 291.81 68.81 293.76 64.28 298.14 66.56 298.6 65.67 293.27 62.9 290.89 68.42"/><polygon class="cls-5" points="235.61 152.19 236.49 152.67 234.11 156.99 238.59 159.05 238.18 159.96 232.72 157.45 235.61 152.19"/><path class="cls-4" d="M2299.69,1304.93a99.17,99.17,0,0,1,10.31-9.19c15.56-12,33.2-18.46,49.36-19.18" transform="translate(-2114.07 -1240.61)"/><polygon class="cls-5" points="190.87 64.97 190.85 63.97 185.92 64.08 186.17 59.16 185.17 59.11 184.87 65.11 190.87 64.97"/><polygon class="cls-5" points="242.29 40.31 241.55 39.63 244.91 36.02 241.06 32.93 241.69 32.15 246.38 35.91 242.29 40.31"/><line class="cls-4" x1="392.6" y1="214.39" x2="392.6" y2="216.89"/><line class="cls-6" x1="392.6" y1="220.23" x2="392.6" y2="225.23"/><polyline class="cls-4" points="392.6 226.89 392.6 229.39 390.1 229.39"/><line class="cls-7" x1="385.12" y1="229.39" x2="38.82" y2="229.39"/><polyline class="cls-4" points="36.33 229.39 33.83 229.39 33.83 226.89"/><line class="cls-8" x1="33.83" y1="221.59" x2="33.83" y2="213.63"/><line class="cls-4" x1="33.83" y1="210.98" x2="33.83" y2="208.48"/><polygon class="cls-5" points="37.91 211.79 37.18 212.47 33.83 208.86 30.47 212.47 29.74 211.79 33.83 207.39 37.91 211.79"/></svg>