<svg id="Layer_1" data-name="Layer 1" xmlns="http://www.w3.org/2000/svg" viewBox="0 0 456.03 272.92"><defs><style>.cls-1{fill:#fff;}.cls-2{font-size:7.34px;}.cls-2,.cls-4{fill:#444;font-family:Lato;}.cls-3{white-space:pre;}.cls-4{font-size:11px;}.cls-5,.cls-7,.cls-8,.cls-9{fill:none;stroke:#39ff03;stroke-miterlimit:10;}.cls-6{fill:#39ff03;}.cls-7{stroke-dasharray:3.33 3.33;}.cls-8{stroke-dasharray:4.98 4.98;}.cls-9{stroke-dasharray:4.27 4.27;}</style></defs><title>figure2</title><rect class="cls-1" width="456.03" height="272.92"/><text class="cls-2" transform="translate(37.45 28.8)"><tspan class="cls-3">    1    </tspan><tspan x="-21.81" y="8.81">D</tspan><tspan x="-16.59" y="8.81">AI</tspan><tspan x="-8.83" y="8.81">L</tspan><tspan x="-5.9" y="8.81">Y S</tspan><tspan x="4.46" y="8.81">T</tspan><tspan x="8.27" y="8.81">AND-UP</tspan><tspan x="-10.55" y="17.61">MEETINGS</tspan></text><text class="cls-2" transform="translate(37.45 122.04)"><tspan class="cls-3">    2    </tspan><tspan x="-9.67" y="8.81">IDE</tspan><tspan x="2.27" y="8.81">A</tspan><tspan x="7.09" y="8.81">TION</tspan><tspan x="-14.63" y="17.61">&amp; PLANNING</tspan></text><text class="cls-2" transform="translate(115.71 206.04)">SPRINT<tspan x="-6.14" y="8.81">PLANNING</tspan></text><text class="cls-2" transform="translate(204.52 203.04)">RESEA<tspan x="22.56" y="0">R</tspan><tspan x="27.26" y="0">CH</tspan><tspan x="17.46" y="8.81">-</tspan><tspan x="5.21" y="17.61">CRE</tspan><tspan x="19.06" y="17.61">A</tspan><tspan x="23.88" y="17.61">TE</tspan></text><text class="cls-2" transform="translate(159.54 137.65)">RESEA<tspan x="22.56" y="0">R</tspan><tspan x="27.26" y="0">CH</tspan><tspan x="17.46" y="8.81">-</tspan><tspan x="5.21" y="17.61">CRE</tspan><tspan x="19.06" y="17.61">A</tspan><tspan x="23.88" y="17.61">TE</tspan></text><text class="cls-2" transform="translate(330.82 206.04)">SPRINT<tspan x="-1.48" y="8.81">REVIEW</tspan></text><text class="cls-2" transform="translate(391.65 206.04)">SPRINT<tspan x="-16.04" y="8.81">RET</tspan><tspan x="-2.62" y="8.81">R</tspan><tspan x="2.08" y="8.81">OSPECTIVE</tspan></text><text class="cls-2" transform="translate(281.54 59.57)">3<tspan x="-18.56" y="8.81">TRANSL</tspan><tspan x="9.46" y="8.81">A</tspan><tspan x="14.28" y="8.81">TE</tspan></text><text class="cls-2" transform="translate(341.23 145.57)">4</text><text class="cls-2" transform="translate(402.33 145.57)">5</text><text class="cls-4" transform="translate(227.21 119.04)">SPRINT</text><text class="cls-2" transform="translate(113.57 50.26)">DESIGN <tspan x="-4.08" y="8.81">METHODS</tspan><tspan x="-1.8" y="17.61">T</tspan><tspan x="2.37" y="17.61">OOLKIT</tspan></text><polygon class="cls-5" points="39.67 67.44 51.68 67.44 45.68 89.02 39.67 67.44"/><circle class="cls-5" cx="45.56" cy="59.57" r="2.56"/><polygon class="cls-5" points="329.35 165.81 341.36 165.81 335.36 187.39 329.35 165.81"/><circle class="cls-5" cx="335.24" cy="157.94" r="2.56"/><polygon class="cls-5" points="398.57 163.6 410.57 163.6 404.57 185.18 398.57 163.6"/><circle class="cls-5" cx="404.46" cy="155.72" r="2.56"/><polygon class="cls-5" points="358.13 179.96 346.12 179.96 352.13 158.38 358.13 179.96"/><circle class="cls-5" cx="352.24" cy="187.84" r="2.56"/><polygon class="cls-5" points="39.67 165.81 51.68 165.81 45.68 187.39 39.67 165.81"/><circle class="cls-5" cx="45.56" cy="157.94" r="2.56"/><circle class="cls-5" cx="45.56" cy="148.4" r="2.56"/><line class="cls-5" x1="93.55" y1="174.46" x2="69.34" y2="174.46"/><polygon class="cls-6" points="90.24 170.37 89.55 171.1 93.17 174.46 89.55 177.82 90.24 178.55 94.64 174.46 90.24 170.37"/><line class="cls-5" x1="192.32" y1="174.46" x2="155.95" y2="174.46"/><polygon class="cls-6" points="189.01 170.37 188.33 171.1 191.94 174.46 188.33 177.82 189.01 178.55 193.41 174.46 189.01 170.37"/><line class="cls-5" x1="312.91" y1="174.46" x2="276.54" y2="174.46"/><polygon class="cls-6" points="309.6 170.37 308.91 171.1 312.53 174.46 308.91 177.82 309.6 178.55 313.99 174.46 309.6 170.37"/><line class="cls-5" x1="395.54" y1="186.35" x2="389.27" y2="163.6"/><polygon class="cls-6" points="398.6 182.07 397.71 181.6 395.44 185.98 391.24 183.39 390.72 184.24 395.83 187.39 398.6 182.07"/><line class="cls-5" x1="419.78" y1="165.29" x2="413.13" y2="187.39"/><polygon class="cls-6" points="414.91 167.28 415.41 168.15 419.67 165.66 421.84 170.08 422.74 169.64 420.09 164.25 414.91 167.28"/><line class="cls-5" x1="383.18" y1="174.46" x2="369.54" y2="174.46"/><line class="cls-5" x1="128.63" y1="144.44" x2="128.63" y2="120.23"/><polygon class="cls-6" points="132.72 141.13 131.98 140.44 128.63 144.06 125.27 140.44 124.54 141.13 128.63 145.52 132.72 141.13"/><path class="cls-5" d="M141.63,1407.1a16.27,16.27,0,0,0-1.2-21.11" transform="translate(0 -1222.08)"/><path class="cls-5" d="M116.82,1386a16.27,16.27,0,0,0-1.2,21.11" transform="translate(0 -1222.08)"/><line class="cls-5" x1="135.02" y1="163.9" x2="122.23" y2="163.9"/><line class="cls-5" x1="133.08" y1="82.15" x2="124.17" y2="82.15"/><line class="cls-5" x1="130.85" y1="86.01" x2="126.4" y2="78.3"/><line class="cls-5" x1="130.85" y1="78.3" x2="126.4" y2="86.01"/><line class="cls-5" x1="133.08" y1="106.15" x2="124.17" y2="106.15"/><line class="cls-5" x1="130.85" y1="110.01" x2="126.4" y2="102.3"/><line class="cls-5" x1="130.85" y1="102.3" x2="126.4" y2="110.01"/><line class="cls-5" x1="126.69" y1="94.15" x2="117.78" y2="94.15"/><line class="cls-5" x1="124.46" y1="98.01" x2="120.01" y2="90.3"/><line class="cls-5" x1="124.46" y1="90.3" x2="120.01" y2="98.01"/><line class="cls-5" x1="139.53" y1="94.15" x2="130.63" y2="94.15"/><line class="cls-5" x1="137.31" y1="98.01" x2="132.85" y2="90.3"/><line class="cls-5" x1="137.31" y1="90.3" x2="132.85" y2="98.01"/><line class="cls-5" x1="135.02" y1="185.02" x2="122.23" y2="185.02"/><line class="cls-5" x1="119.11" y1="170.94" x2="138.14" y2="170.94"/><line class="cls-5" x1="119.11" y1="177.98" x2="138.14" y2="177.98"/><circle class="cls-5" cx="214.26" cy="175.53" r="5.34"/><polyline class="cls-5" points="215.56 176.57 216.3 173.77 213.46 174.43"/><polyline class="cls-5" points="225.87 185.75 234.2 169.1 223.83 167.17 232.73 172.04"/><circle class="cls-5" cx="171.87" cy="111.7" r="5.34"/><polyline class="cls-5" points="173.17 112.74 173.91 109.94 171.07 110.6"/><polyline class="cls-5" points="183.49 121.92 191.81 105.27 181.44 103.34 190.34 108.21"/><path class="cls-5" d="M305.52,1304.51c9.09,23.83-3,56.24-30.75,77.74a94.93,94.93,0,0,1-29.16,15.49" transform="translate(0 -1222.08)"/><polygon class="cls-6" points="302.75 86.94 303.67 87.34 305.61 82.81 309.99 85.09 310.45 84.2 305.12 81.43 302.75 86.94"/><polygon class="cls-6" points="247.46 170.72 248.34 171.2 245.97 175.52 250.45 177.58 250.03 178.49 244.57 175.98 247.46 170.72"/><path class="cls-5" d="M197.47,1304.93a99.17,99.17,0,0,1,10.31-9.19c15.56-12,33.2-18.46,49.36-19.18" transform="translate(0 -1222.08)"/><polygon class="cls-6" points="202.72 83.5 202.7 82.5 197.77 82.61 198.02 77.69 197.02 77.64 196.72 83.64 202.72 83.5"/><polygon class="cls-6" points="254.14 58.84 253.41 58.16 256.76 54.55 252.92 51.46 253.54 50.68 258.23 54.44 254.14 58.84"/><line class="cls-5" x1="404.46" y1="232.92" x2="404.46" y2="235.42"/><line class="cls-7" x1="404.46" y1="238.76" x2="404.46" y2="243.76"/><polyline class="cls-5" points="404.45 245.42 404.45 247.92 401.95 247.92"/><line class="cls-8" x1="396.97" y1="247.92" x2="50.67" y2="247.92"/><polyline class="cls-5" points="48.18 247.92 45.68 247.92 45.68 245.42"/><line class="cls-9" x1="45.68" y1="241.15" x2="45.68" y2="217.64"/><line class="cls-5" x1="45.68" y1="215.51" x2="45.68" y2="213.01"/><polygon class="cls-6" points="49.77 216.32 49.03 217 45.68 213.39 42.32 217 41.59 216.32 45.68 211.92 49.77 216.32"/></svg>