<svg id="Layer_1" data-name="Layer 1" xmlns="http://www.w3.org/2000/svg" viewBox="0 0 456.03 197.99"><defs><style>.cls-1{fill:#fff;}.cls-2{fill:none;stroke:#39ff03;stroke-miterlimit:10;}.cls-3{font-size:7.34px;fill:#444;font-family:Lato;}.cls-4{fill:#39ff03;}</style></defs><title>figure1</title><rect class="cls-1" width="456.03" height="197.99"/><polyline class="cls-2" points="338.65 114.13 356.14 79.16 334.36 75.1 353.06 85.32"/><circle class="cls-2" cx="111.8" cy="95.17" r="16.54"/><polyline class="cls-2" points="115.84 98.38 118.13 89.71 109.32 91.76"/><text class="cls-3" transform="translate(94.53 134.7)">RESEA<tspan x="22.56" y="0">R</tspan><tspan x="27.26" y="0">CH</tspan></text><text class="cls-3" transform="translate(330.69 134.7)">CRE<tspan x="13.85" y="0">A</tspan><tspan x="18.67" y="0">TE</tspan></text><text class="cls-3" transform="translate(208.24 102.14)">TRANSL<tspan x="28.02" y="0">A</tspan><tspan x="32.84" y="0">TE</tspan></text><path class="cls-2" d="M151,750.86c35.48-28.45,111.08-39.94,157-2.16" transform="translate(0 -679.08)"/><polygon class="cls-4" points="156.18 72.98 156.27 71.98 151.36 71.56 152.14 66.69 151.15 66.53 150.2 72.46 156.18 72.98"/><path class="cls-2" d="M159.9,770.47c33.87-33,99.3-48.6,148.1-15.82" transform="translate(0 -679.08)"/><polygon class="cls-4" points="165.13 92.09 165.12 91.08 160.19 91.14 160.49 86.22 159.49 86.16 159.13 92.15 165.13 92.09"/><path class="cls-2" d="M307.16,799.46c-35.48,28.45-111.08,39.94-157,2.16" transform="translate(0 -679.08)"/><polygon class="cls-4" points="302.01 119.19 301.93 120.18 306.84 120.61 306.06 125.48 307.05 125.63 308 119.7 302.01 119.19"/><path class="cls-2" d="M298.3,779.85c-33.87,33-99.3,48.6-148.1,15.82" transform="translate(0 -679.08)"/><polygon class="cls-4" points="293.06 100.08 293.08 101.08 298.01 101.03 297.7 105.95 298.7 106.01 299.07 100.01 293.06 100.08"/></svg>