<svg id="Layer_1" data-name="Layer 1" xmlns="http://www.w3.org/2000/svg" viewBox="0 0 285.77 106.79"><defs><style>.cls-1{fill:#fff;}.cls-2{fill:none;stroke:#39ff03;stroke-miterlimit:10;}.cls-3{font-size:7.34px;fill:#444;font-family:Lato;}.cls-4{fill:#39ff03;}</style></defs><title>figure1</title><rect class="cls-1" width="285.77" height="106.79"/><polyline class="cls-2" points="253.53 71.52 271.01 36.55 249.23 32.5 267.93 42.72"/><circle class="cls-2" cx="26.68" cy="55.57" r="10.54"/><polyline class="cls-2" points="29.25 57.61 30.71 52.09 25.1 53.39"/><text class="cls-3" transform="translate(9.4 92.1)">RESEA<tspan x="22.56" y="0">R</tspan><tspan x="27.26" y="0">CH</tspan></text><text class="cls-3" transform="translate(245.56 92.1)">CRE<tspan x="13.85" y="0">A</tspan><tspan x="18.67" y="0">TE</tspan></text><text class="cls-3" transform="translate(123.12 56.54)">TRANSL<tspan x="28.02" y="0">A</tspan><tspan x="32.84" y="0">TE</tspan></text><path class="cls-2" d="M2253.25,750.86c35.48-28.45,111.08-39.94,157-2.16" transform="translate(-2187.34 -721.68)"/><polygon class="cls-4" points="71.06 30.38 71.14 29.38 66.23 28.96 67.01 24.09 66.02 23.93 65.07 29.86 71.06 30.38"/><path class="cls-2" d="M2262.11,770.47c33.87-33,99.3-48.6,148.1-15.82" transform="translate(-2187.34 -721.68)"/><polygon class="cls-4" points="80 49.48 79.99 48.48 75.06 48.54 75.37 43.62 74.37 43.56 74 49.55 80 49.48"/><path class="cls-2" d="M2409.37,799.46c-35.48,28.45-111.08,39.94-157,2.16" transform="translate(-2187.34 -721.68)"/><polygon class="cls-4" points="216.89 76.58 216.8 77.58 221.71 78 220.93 82.87 221.92 83.03 222.87 77.1 216.89 76.58"/><path class="cls-2" d="M2400.51,779.85c-33.87,33-99.3,48.6-148.1,15.82" transform="translate(-2187.34 -721.68)"/><polygon class="cls-4" points="207.94 57.48 207.95 58.48 212.88 58.42 212.58 63.34 213.58 63.41 213.94 57.41 207.94 57.48"/><line class="cls-2" x1="168.25" y1="34.32" x2="119.69" y2="34.32"/><line class="cls-2" x1="168.25" y1="72.75" x2="119.69" y2="72.75"/><line class="cls-2" x1="107.84" y1="43.8" x2="180.11" y2="43.8"/><line class="cls-2" x1="107.84" y1="64.27" x2="180.11" y2="64.27"/></svg>