<svg id="Layer_1" data-name="Layer 1" xmlns="http://www.w3.org/2000/svg" viewBox="0 0 66.73 36.9"><defs><style>.cls-1{fill:none;stroke:#39ff03;stroke-linecap:round;stroke-miterlimit:10;stroke-width:3px;}</style></defs><title>WIND</title><path class="cls-1" d="M-1413.67,559.84h56.19" transform="translate(1415.17 -543.27)"/><path class="cls-1" d="M-1365,552.31a7.53,7.53,0,0,1,7.53-7.53,7.53,7.53,0,0,1,7.53,7.53,7.53,7.53,0,0,1-7.53,7.53" transform="translate(1415.17 -543.27)"/><path class="cls-1" d="M-1413.67,567.13h42.89" transform="translate(1415.17 -543.27)"/><path class="cls-1" d="M-1376.55,572.9a5.77,5.77,0,0,0,5.77,5.77,5.77,5.77,0,0,0,5.77-5.77,5.77,5.77,0,0,0-5.77-5.77" transform="translate(1415.17 -543.27)"/></svg>